<svg aria-hidden="true" style="position: absolute; width: 0; height: 0; overflow: hidden;" version="1.1" xmlns="http://www.w3.org/2000/svg" xmlns:xlink="http://www.w3.org/1999/xlink">
<defs>
<symbol id="iconList" viewBox="0 0 23 32">
<path fill="#458DFC" style="fill: var(--color1, #458DFC)" d="M21.885 0h-21.1c-0.435 0-0.785 0.346-0.785 0.775v30.453c0 0.428 0.351 0.775 0.785 0.775h21.1c0.434 0 0.785-0.346 0.785-0.775v-30.453c-0.004-0.429-0.353-0.775-0.782-0.775-0.001 0-0.002 0-0.003 0h0z"></path>
<path fill="#fff" style="fill: var(--color2, #fff)" d="M20.5 1.38h-18.332c-0.421 0-0.764 0.339-0.764 0.757v25.178c0 0.418 0.343 0.755 0.764 0.755h18.332c0.423 0 0.764-0.339 0.764-0.755v-25.178c-0.001-0.418-0.341-0.757-0.759-0.757-0.002 0-0.003 0-0.005 0h0z"></path>
<path fill="#458DFC" style="fill: var(--color1, #458DFC)" d="M15.082 13.351h-7.494c-0.001 0-0.003 0-0.004 0-0.339 0-0.615-0.274-0.617-0.613v-7.402c0-0.339 0.278-0.613 0.621-0.613h7.494c0.343 0 0.621 0.275 0.621 0.613v7.399c-0.002 0.34-0.278 0.616-0.619 0.616-0.001 0-0.001 0-0.002 0h0z"></path>
<path fill="#fff" style="fill: var(--color2, #fff)" d="M11.335 31.174c0.637 0 1.154-0.51 1.154-1.139s-0.517-1.139-1.154-1.139c-0.637 0-1.154 0.51-1.154 1.139s0.516 1.139 1.154 1.139z"></path>
<path fill="#458DFC" style="fill: var(--color1, #458DFC)" d="M17.865 17.184h-13.063c-0.33 0-0.6-0.267-0.6-0.593s0.27-0.592 0.6-0.592h13.060c0.33 0 0.6 0.267 0.6 0.593-0.002 0.328-0.268 0.593-0.596 0.593-0 0-0.001 0-0.001 0h0z"></path>
<path fill="#458DFC" style="fill: var(--color1, #458DFC)" opacity="0.6" d="M15.653 20.468h-11.069c-0.001 0-0.001 0-0.002 0-0.207 0-0.376-0.167-0.377-0.374v-0.041c0-0.208 0.171-0.375 0.379-0.375h11.070c0.001 0 0.001 0 0.002 0 0.207 0 0.376 0.167 0.377 0.374v0.041c0.003 0.205-0.169 0.375-0.379 0.375z"></path>
<path fill="#458DFC" style="fill: var(--color1, #458DFC)" opacity="0.3" d="M13.546 22.554h-8.999c-0 0-0 0-0.001 0-0.189 0-0.343-0.152-0.345-0.341v-0.113c0-0.187 0.156-0.341 0.346-0.341h8.996c0.19 0 0.346 0.154 0.346 0.341v0.113c0 0.187-0.156 0.341-0.343 0.341z"></path>
<path fill="#458DFC" style="fill: var(--color1, #458DFC)" opacity="0.6" d="M14.679 24.485h-10.111c-0.2 0-0.364-0.162-0.364-0.359v-0.072c0-0.198 0.164-0.359 0.364-0.359h10.111c0.2 0 0.364 0.162 0.364 0.359v0.072c0 0.195-0.164 0.359-0.364 0.359z"></path>
<path fill="#fff" style="fill: var(--color2, #fff)" d="M11.357 8.798c0.75-0 1.358-0.608 1.358-1.359 0-0 0-0 0-0v0c0-0.006 0-0.014 0-0.021 0-0.75-0.608-1.359-1.359-1.359s-1.359 0.608-1.359 1.359c0 0.008 0 0.015 0 0.023v-0.001c0 0.001 0 0.002 0 0.002 0 0.75 0.608 1.357 1.357 1.357 0.001 0 0.001 0 0.002 0h-0zM11.357 9.478c-0.907 0-2.717 0.455-2.717 1.36v0.341c0 0.188 0.154 0.341 0.341 0.341h4.758c0.187 0 0.341-0.154 0.341-0.341v-0.341c-0.006-0.901-1.816-1.359-2.723-1.359z"></path>
</symbol>
<symbol id="iconMagn-glass" viewBox="0 0 33 32">
<path fill="#458DFC" style="fill: var(--color1, #5A98F2)" d="M19.988 15.401l-16.858 16.089c-0.33 0.318-0.78 0.513-1.275 0.513-0 0-0 0-0.001 0h0c-0.001 0-0.002 0-0.003 0-0.542 0-1.029-0.234-1.365-0.606l-0.001-0.002c-0.719-0.794-0.625-2.036 0.203-2.713l17.844-14.542 1.457 1.26z"></path>
<path fill="#3a81d6" style="fill: var(--color3, #3a81d6)" opacity="0.8" d="M16.619 18.638l-3.177 3.030-0.293-3.114 1.739-1.417 1.732 1.5z"></path>
<path fill="#458DFC" style="fill: var(--color1, #5A98F2)" d="M32.703 10.634c0 5.874-4.727 10.637-10.554 10.637-3.673 0-6.907-1.89-8.797-4.76-1.101-1.649-1.756-3.676-1.756-5.857 0-0.007 0-0.015 0-0.022v0.001c-0-5.874 4.727-10.634 10.554-10.634 2.631 0 5.035 0.969 6.882 2.571 2.255 1.963 3.672 4.839 3.672 8.045 0 0.006 0 0.012-0 0.019v-0.001z"></path>
<path fill="#fff" style="fill: var(--color2, #fff)" d="M22.149 18.919c4.541 0 8.223-3.71 8.223-8.285s-3.681-8.285-8.223-8.285c-4.541 0-8.223 3.71-8.223 8.285s3.681 8.285 8.223 8.285z"></path>
<path fill="#1a6fb5" style="fill: var(--color4, #5A98F2)" opacity="0.03" d="M32.703 10.634c0 5.874-4.727 10.637-10.554 10.637-3.673 0-6.907-1.89-8.797-4.76 11.902-0.976 15.039-11.136 15.683-13.941 2.253 1.965 3.669 4.84 3.669 8.046 0 0.006 0 0.012 0 0.018v-0.001z"></path>
<path fill="#458DFC" style="fill: var(--color1, #458DFC)" d="M22.149 10.652c0.954 0 1.728-0.779 1.728-1.741s-0.774-1.741-1.728-1.741c-0.954 0-1.728 0.779-1.728 1.741s0.77 1.741 1.728 1.741zM22.149 11.523c-1.153 0-3.456 0.583-3.456 1.741v0.437c0 0.24 0.196 0.437 0.434 0.437h6.050c0.239 0 0.434-0.197 0.434-0.437v-0.437c-0.007-1.155-2.31-1.741-3.462-1.741z"></path>
</symbol>
<symbol id="iconMedicine" viewBox="0 0 23 32">
<path fill="#1A6FB5" style="fill: var(--color1, #1A6FB5)" d="M23.287 9.969l-0.072 14.984-0.012 2.898c-0.012 2.303-2.201 4.161-4.895 4.149l-13.457-0.060c-2.688-0.018-4.864-1.894-4.852-4.203l0.084-17.882c0.006-1.864 1.449-3.439 3.421-3.962l0.006-0.962v-0.493l16.397 0.078-0.006 1.455c1.966 0.547 3.391 2.129 3.385 3.998z"></path>
<path fill="#1A6FB5" style="fill: var(--color1, #1A6FB5)" d="M21.129 0.667v0.132l-0.012 1.563-0.012 1.533v0.186c0 0.288-0.241 0.523-0.529 0.523h-0.126l-17.617-0.139c-0.289 0-0.523-0.241-0.523-0.529v-0.138l0.024-3.091v-0.186c0-0.289 0.241-0.523 0.535-0.523h0.127l17.611 0.139c0.295 0.006 0.523 0.241 0.523 0.529z"></path>
<path fill="#1A6FB5" style="fill: var(--color1, #1A6FB5)" d="M21.129 0.806l-0.012 1.557-0.012 1.533-0.715-0.006-1.822-0.012h-0.956l-2.694-0.018h-0.956l-2.694-0.018h-0.956l-2.7-0.018h-0.95l-2.7-0.018h-0.95l-0.704-0.006 0.024-3.091 1.672 0.006 3.65 0.024h0.872l2.778 0.018h0.872l2.778 0.018h0.872l2.778 0.018h0.872l1.653 0.012z"></path>
<path fill="#f7f9fc" style="fill: var(--color5, #f7f9fc)" d="M23.27 13.133l-23.203-0.11-0.049 10.288 23.203 0.11 0.049-10.288z"></path>
<path fill="#fbfcf7" style="fill: var(--color6, #fbfcf7)" d="M23.274 13.133l-23.203-0.11-0.009 1.852 23.203 0.11 0.009-1.852z"></path>
<path fill="#1A6FB5" style="fill: var(--color1, #1A6FB5)" d="M9.115 17.16l-1.497-0.006 0.006-1.503-2.062-0.006-0.006 1.497-1.497-0.006-0.012 2.056 1.497 0.006-0.006 1.503 2.062 0.006 0.006-1.497 1.497 0.006 0.012-2.057z"></path>
<path fill="#1A6FB5" style="fill: var(--color1, #1A6FB5)" d="M19.289 17.659l-7.419-0.036c-0.199-0-0.36-0.162-0.361-0.361v-0.168c0-0.198 0.163-0.361 0.361-0.361l7.419 0.036c0.198 0 0.361 0.162 0.361 0.361v0.168c-0.001 0.199-0.162 0.36-0.361 0.361h-0z"></path>
<path fill="#1A6FB5" style="fill: var(--color1, #1A6FB5)" opacity="0.5" d="M19.283 19.865l-7.419-0.036c-0.199-0-0.361-0.162-0.361-0.361v-0.168c0-0.198 0.163-0.361 0.361-0.361l7.419 0.036c0.199 0 0.361 0.162 0.361 0.361v0.168c-0 0.199-0.162 0.361-0.361 0.361h-0z"></path>
<path fill="#1a6fb5" style="fill: var(--color4, #1a6fb5)" opacity="0.08" d="M2.309 0.667v0.132l0.012 1.563 0.012 1.527v0.186c0 0.288 0.241 0.523 0.529 0.523h0.127l17.599-0.127c0.289 0 0.523-0.241 0.523-0.529v-0.138c-9.302 0.403-18.279-3.668-18.279-3.668-0.289 0.005-0.521 0.24-0.523 0.529v0z"></path>
</symbol>
<symbol id="iconList-left" viewBox="0 0 23 32">
<path fill="#458DFC" style="fill: var(--color1, #458DFC)" d="M22.808 30.467c0 0 0 0.001 0 0.001 0 0.835-0.676 1.511-1.511 1.512l-19.539 0.022c-0 0-0 0-0.001 0-0.66 0-1.221-0.422-1.429-1.011l-0.003-0.011c-0.051-0.144-0.081-0.31-0.081-0.482 0-0.001 0-0.003 0-0.004v0l-0.031-28.177c0-0 0-0.001 0-0.001 0-0.835 0.676-1.512 1.511-1.512l19.538-0.022c0 0 0.001 0 0.001 0 0.835 0 1.511 0.676 1.512 1.511v0l0.031 28.174z"></path>
<path fill="#fff" style="fill: var(--color2, #fff)" d="M20.783 30.305l-18.514 0.020c-0 0-0 0-0.001 0-0.448 0-0.812-0.363-0.812-0.812 0-0 0-0 0-0.001v0l-0.028-26.222c0-0 0-0.001 0-0.001 0-0.448 0.363-0.812 0.812-0.812 0 0 0.001 0 0.001 0h-0l18.51-0.020c0 0 0.001 0 0.001 0 0.448 0 0.812 0.363 0.812 0.812 0 0 0 0.001 0 0.001v-0l0.028 26.222c0 0.001 0 0.002 0 0.003 0 0.447-0.362 0.809-0.809 0.809-0 0-0 0-0 0h0z"></path>
<path fill="#458DFC" style="fill: var(--color1, #458DFC)" d="M18.183 4.619l-13.503 0.017c0 0 0 0 0 0-0.448 0-0.811-0.362-0.813-0.81v-0l-0.003-2.251c0 0 0 0 0 0 0-0.448 0.362-0.811 0.81-0.813h0l13.506-0.014c0 0 0 0 0 0 0.448 0 0.811 0.362 0.813 0.81v0l0.003 2.251c-0.003 0.447-0.365 0.809-0.813 0.81h-0zM4.674 1.176c-0.218 0-0.396 0.179-0.396 0.396l0.003 2.251c0 0.218 0.179 0.396 0.396 0.396l13.506-0.014c0.218 0 0.397-0.179 0.397-0.396l-0.003-2.251c0-0.218-0.179-0.396-0.396-0.396l-13.506 0.014z"></path>
<path fill="#458DFC" style="fill: var(--color1, #458DFC)" d="M17.8 1.723l-12.609 0.014c-0 0-0.001 0-0.001 0-0.138 0-0.25-0.112-0.25-0.25 0-0 0-0.001 0-0.001v0-1.22c0-0.14 0.112-0.252 0.251-0.252l12.607-0.014c0.14 0 0.251 0.112 0.251 0.251v1.221c0 0.002 0 0.004 0 0.006 0 0.136-0.11 0.246-0.246 0.246-0.001 0-0.002 0-0.003-0h0z"></path>
<path fill="#58d6f4" style="fill: var(--color7, #58d6f4)" d="M5.202 1.737l12.587-0.014c0.145 0 0.263-0.118 0.263-0.263v-0.598l-13.115 0.014v0.598c0 0.145 0.12 0.263 0.265 0.263zM9.626 27.356l-1.089-6.591-0.883 2.868-2.525 0.003c-0 0-0.001 0-0.001 0-0.152 0-0.275-0.123-0.275-0.275 0-0 0-0.001 0-0.001v0c0-0.154 0.123-0.277 0.276-0.277l2.12-0.003 1.455-4.723 1.089 6.608 1.413-4.539 0.751 2.151 1.693-4.103 1.645 6.507 0.62-2.070 1.816-0.003c0.153 0 0.276 0.123 0.276 0.277s-0.123 0.276-0.276 0.276l-1.405 0.003-1.075 3.588-1.726-6.825-1.611 3.901-0.679-1.941-1.609 5.167z"></path>
<path fill="#458DFC" style="fill: var(--color1, #458DFC)" d="M7.754 14.648l-3.55 0.003c-0.574-0.001-1.039-0.465-1.042-1.039v-0l-0.006-4.963c0-0.573 0.467-1.042 1.039-1.042l3.55-0.003c0.573 0 1.042 0.466 1.042 1.039l0.006 4.963c0 0.573-0.467 1.039-1.039 1.042zM4.194 7.909c-0.408 0-0.737 0.332-0.737 0.74l0.006 4.963c0 0.408 0.332 0.737 0.74 0.737l3.55-0.003c0.408 0 0.737-0.332 0.737-0.74l-0.006-4.963c0-0.408-0.332-0.737-0.74-0.737l-3.55 0.003z"></path>
<path fill="#458DFC" style="fill: var(--color1, #458DFC)" d="M5.976 13.696c1.678-0.003 2.201-0.972 2.201-0.972-0.085-0.103-0.183-0.19-0.294-0.26l-0.005-0.003c-0.441-0.288-0.796-0.411-0.944-0.534-0.151-0.12-0.235-0.296-0.235-0.296l-0.092 0.056s-0.056-0.193-0.025-0.486c0 0 0.131-0.034 0.229-0.478 0.156 0.031 0.341-0.366 0.254-0.511-0.056-0.095-0.123-0.087-0.17-0.064 0.047-0.199 0.262-1.296-0.922-1.296s-0.969 1.097-0.919 1.296c-0.048-0.022-0.115-0.031-0.17 0.064-0.087 0.146 0.1 0.542 0.257 0.511 0.098 0.444 0.232 0.475 0.232 0.475 0.034 0.29-0.025 0.486-0.025 0.486l-0.092-0.056s-0.084 0.173-0.235 0.296c-0.151 0.123-0.503 0.248-0.944 0.536-0.129 0.084-0.226 0.168-0.299 0.263-0.003 0.005 0.522 0.974 2.198 0.972z"></path>
<path fill="#458DFC" style="fill: var(--color1, #458DFC)" d="M17.029 9.188l-6.834 0.008c-0 0-0 0-0.001 0-0.128 0-0.231-0.104-0.231-0.231 0-0 0-0 0-0v0-0.039c0-0.129 0.103-0.232 0.232-0.232l6.834-0.008c0.129 0 0.232 0.103 0.232 0.232v0.039c-0.001 0.128-0.104 0.231-0.232 0.232h-0z"></path>
<path fill="#458DFC" style="fill: var(--color1, #458DFC)" d="M14.516 10.49l-4.32 0.005c-0 0-0 0-0.001 0-0.128 0-0.231-0.104-0.231-0.231 0-0 0-0 0-0v0-0.039c0-0.128 0.103-0.232 0.232-0.232l4.32-0.006c0.128 0 0.232 0.103 0.232 0.232v0.039c0 0 0 0 0 0.001 0 0.128-0.104 0.231-0.231 0.231-0 0-0 0-0 0h0z"></path>
<path fill="#458DFC" style="fill: var(--color1, #458DFC)" opacity="0.6" d="M19.387 12.037l-9.188 0.011c-0 0-0 0-0 0-0.128 0-0.231-0.104-0.231-0.231 0-0 0-0 0-0v0-0.039c0-0.129 0.103-0.232 0.232-0.232l9.188-0.011c0.128 0 0.232 0.103 0.232 0.232v0.039c-0.002 0.127-0.104 0.23-0.232 0.232h-0z"></path>
<path fill="#458DFC" style="fill: var(--color1, #458DFC)" opacity="0.6" d="M19.188 16.385l-15.327 0.017c-0.133 0-0.24-0.108-0.24-0.24v0-0.023c0-0.131 0.106-0.24 0.24-0.24l15.327-0.017c0.131 0 0.24 0.106 0.24 0.24v0.022c0 0.133-0.108 0.24-0.24 0.24v0z"></path>
<path fill="#458DFC" style="fill: var(--color1, #458DFC)" opacity="0.6" d="M19.387 13.556l-9.188 0.011c-0 0-0 0-0 0-0.128 0-0.231-0.104-0.231-0.231 0-0 0-0 0-0v0-0.039c0-0.128 0.103-0.232 0.232-0.232l9.188-0.011c0.128 0 0.232 0.103 0.232 0.232v0.039c0 0 0 0 0 0.001 0 0.128-0.103 0.231-0.231 0.231-0 0-0 0-0.001 0h0z"></path>
</symbol>
<symbol id="iconKit" viewBox="0 0 36 32">
<path fill="#458DFC" style="fill: var(--color1, #458DFC)" d="M29.544 6.227h-23.652v25.385h23.652v-25.385z"></path>
<path fill="#458DFC" style="fill: var(--color1, #458DFC)" d="M5.795 6.227c0.028 0 0.057 0.012 0.098 0.025v25.348c-1.831 0.143-3.376-0.318-4.604-1.501-0.868-0.84-1.288-1.827-1.288-2.944v-11.863c0-1.509-0.004-3.018-0.004-4.527 0-1.823 0.983-3.148 2.79-4.045 0.93-0.457 1.961-0.526 3.009-0.493z"></path>
<path fill="#fff" style="fill: var(--color2, #fff)" d="M25.413 6.223h2.215v25.381h-19.819v-25.373h2.353v-0.264c0-0.91 0.004-1.823-0.004-2.732-0.008-0.636 0.164-1.191 0.661-1.623 0.351-0.302 0.755-0.456 1.211-0.456 1.415-0.004 2.826-0.004 4.241-0.004 2.377 0 4.759 0.004 7.136 0 0.624 0 1.142 0.204 1.549 0.677 0.326 0.379 0.449 0.824 0.449 1.321-0.004 0.959 0 1.917 0 2.875-0.004 0.053 0 0.114 0.008 0.2zM12.715 6.223h3.625c2.104 0 4.212 0 6.316 0.004 0.168 0 0.204-0.053 0.204-0.212-0.009-0.714 0-1.428 0-2.141 0-0.057-0.009-0.114-0.017-0.176h-10.129v2.524z"></path>
<path fill="#458DFC" style="fill: var(--color1, #458DFC)" d="M25.82 0h-16.487v6.231h16.487v-6.231z"></path>
<path fill="#458DFC" style="fill: var(--color1, #458DFC)" d="M35.556 10.7c0-1.68-0.917-2.932-2.549-3.841-1.003-0.559-2.141-0.665-3.307-0.64-0.18 0.004-0.156 0.098-0.156 0.196v8.804c0 5.158 0 10.313-0.004 15.471v0.918c0.734 0.024 1.431 0.029 2.116-0.134 2.316-0.547 3.895-2.272 3.895-4.307 0.008-5.484 0.004-10.978 0.004-16.467z"></path>
<path fill="#458DFC" style="fill: var(--color1, #458DFC)" d="M19.652 20.793v3.222c0 0.338-0.171 0.518-0.506 0.518-0.921 0.004-1.843 0.004-2.764 0-0.306 0-0.477-0.192-0.477-0.514v-3.225h-3.185c-0.396 0-0.559-0.16-0.559-0.555v-2.63c0-0.4 0.159-0.559 0.555-0.559h3.185v-3.205c0-0.375 0.167-0.538 0.542-0.538h2.63c0.412 0 0.571 0.155 0.571 0.575 0.004 1.003 0 2.002 0 3.005v0.167h0.175c1.012 0 2.023 0 3.034 0.004 0.371 0 0.53 0.163 0.53 0.534v2.642c0 0.404-0.156 0.559-0.551 0.559-1.007 0-2.014 0-3.017 0.004-0.041-0.004-0.090-0.004-0.163-0.004z"></path>
</symbol>
<symbol id="iconList-right" viewBox="0 0 22 32">
<path fill="#458DFC" style="fill: var(--color1, #458DFC)" d="M7.499 3.223v1.747c0 0.001 0 0.002 0 0.003 0 0.122-0.099 0.222-0.222 0.222-0.001 0-0.002 0-0.003-0h-2.14c-0.001 0-0.002-0-0.003-0-0.122 0-0.222 0.099-0.222 0.222 0 0.001 0 0.002 0 0.003v-0 2.14c0 0.001 0 0.002 0 0.003 0 0.122-0.099 0.222-0.222 0.222-0.001 0-0.002 0-0.003-0h-1.747c-0.001 0-0.002 0-0.003 0-0.123 0-0.222-0.099-0.222-0.222 0-0.001 0-0.002 0-0.003v0-2.14c0-0.001 0-0.002 0-0.003 0-0.122-0.099-0.222-0.222-0.222-0.001 0-0.002 0-0.003 0h-2.133c-0.001 0-0.002 0-0.003 0-0.122 0-0.222-0.099-0.222-0.222 0-0.001 0-0.002 0-0.003v0-1.747c0-0.127 0.098-0.225 0.224-0.225h2.14c0.001 0 0.002 0 0.003 0 0.123 0 0.222-0.099 0.222-0.222 0-0.001 0-0.002-0-0.003v0-2.14c0-0.127 0.098-0.225 0.224-0.225h1.748c0.126 0 0.224 0.098 0.224 0.225v2.14c0 0.126 0.098 0.224 0.224 0.224h2.133c0.126 0 0.224 0.098 0.224 0.225z"></path>
<path fill="#458DFC" style="fill: var(--color1, #458DFC)" opacity="0.5" d="M21.589 12.745h-21.213c-0 0-0.001 0-0.001 0-0.139 0-0.252-0.113-0.252-0.252 0-0 0-0.001 0-0.001v0-0.807c0-0.14 0.112-0.253 0.253-0.253h21.213c0.14 0 0.252 0.112 0.252 0.253v0.807c-0.007 0.14-0.112 0.253-0.252 0.253z"></path>
<path fill="#458DFC" style="fill: var(--color1, #458DFC)" d="M21.589 2.69h-10.526c-0 0-0.001 0-0.001 0-0.139 0-0.252-0.113-0.252-0.252 0-0 0-0.001 0-0.001v0-0.8c0-0.14 0.112-0.252 0.253-0.252h10.526c0.14 0 0.252 0.112 0.252 0.252v0.808c-0.005 0.136-0.116 0.245-0.252 0.246h-0z"></path>
<path fill="#458DFC" style="fill: var(--color1, #458DFC)" opacity="0.5" d="M18.474 6.1h-7.41c-0 0-0.001 0-0.001 0-0.139 0-0.252-0.113-0.252-0.252 0-0 0-0.001 0-0.001v0-0.807c0-0.14 0.112-0.252 0.253-0.252h7.41c0.14 0 0.252 0.112 0.252 0.252v0.807c-0.007 0.14-0.112 0.252-0.252 0.252z"></path>
<path fill="#458DFC" style="fill: var(--color1, #458DFC)" opacity="0.5" d="M21.589 16.576h-21.213c-0 0-0.001 0-0.001 0-0.139 0-0.252-0.113-0.252-0.252 0-0 0-0.001 0-0.001v0-0.807c0-0.14 0.112-0.252 0.253-0.252h21.213c0.14 0 0.252 0.112 0.252 0.252v0.807c-0.007 0.14-0.112 0.252-0.252 0.252z"></path>
<path fill="#458DFC" style="fill: var(--color1, #458DFC)" opacity="0.5" d="M21.589 20.408h-21.213c-0 0-0.001 0-0.001 0-0.139 0-0.252-0.113-0.252-0.252 0-0 0-0.001 0-0.001v0-0.807c0-0.14 0.112-0.253 0.253-0.253h21.213c0.14 0 0.252 0.112 0.252 0.253v0.814c-0.005 0.136-0.116 0.245-0.252 0.246h-0z"></path>
<path fill="#458DFC" style="fill: var(--color1, #458DFC)" opacity="0.5" d="M21.589 24.246h-21.213c-0 0-0.001 0-0.001 0-0.139 0-0.252-0.113-0.252-0.252 0-0 0-0.001 0-0.001v0-0.807c0-0.14 0.112-0.252 0.253-0.252h21.213c0.14 0 0.252 0.112 0.252 0.252v0.807c-0.007 0.14-0.112 0.252-0.252 0.252z"></path>
<path fill="#458DFC" style="fill: var(--color1, #458DFC)" opacity="0.5" d="M21.589 28.078h-21.213c-0 0-0.001 0-0.001 0-0.139 0-0.252-0.113-0.252-0.252 0-0 0-0.001 0-0.001v0-0.807c0-0.14 0.112-0.253 0.253-0.253h21.213c0.14 0 0.252 0.112 0.252 0.253v0.807c-0.007 0.14-0.112 0.252-0.252 0.252z"></path>
<path fill="#458DFC" style="fill: var(--color1, #458DFC)" opacity="0.5" d="M21.589 31.909h-21.213c-0 0-0.001 0-0.001 0-0.139 0-0.252-0.113-0.252-0.252 0-0 0-0.001 0-0.001v0-0.807c0-0.14 0.112-0.252 0.253-0.252h21.213c0.14 0 0.252 0.112 0.252 0.252v0.807c-0.007 0.14-0.112 0.253-0.252 0.253z"></path>
</symbol>
<symbol id="iconFrame-4" viewBox="0 0 23 32">
<path fill="#458DFC" style="fill: var(--color1, #458DFC)" d="M22.808 30.467c0 0.835-0.676 1.514-1.511 1.514l-19.538 0.022c-0.665 0-1.229-0.427-1.433-1.022-0.053-0.154-0.081-0.316-0.081-0.486l-0.031-28.177c0-0.835 0.676-1.514 1.511-1.514l19.538-0.022c0.835 0 1.514 0.676 1.514 1.511l0.031 28.174z"></path>
<path fill="#fff" style="fill: var(--color2, #fff)" d="M20.783 30.305l-18.514 0.020c-0.45 0-0.813-0.363-0.813-0.813l-0.028-26.222c0-0.45 0.363-0.813 0.813-0.813l18.511-0.020c0.45 0 0.813 0.363 0.813 0.813l0.028 26.222c0.003 0.447-0.36 0.813-0.81 0.813z"></path>
<path fill="#458DFC" style="fill: var(--color1, #458DFC)" d="M18.183 4.619l-13.503 0.017c-0.447 0-0.813-0.363-0.813-0.81l-0.003-2.251c0-0.447 0.363-0.813 0.81-0.813l13.506-0.014c0.447 0 0.813 0.363 0.813 0.81l0.003 2.251c-0.003 0.447-0.366 0.81-0.813 0.81zM4.674 1.176c-0.218 0-0.397 0.179-0.397 0.397l0.003 2.251c0 0.218 0.179 0.397 0.397 0.397l13.506-0.014c0.218 0 0.397-0.179 0.397-0.397l-0.003-2.251c0-0.218-0.179-0.397-0.397-0.397l-13.506 0.014z"></path>
<path fill="#458DFC" style="fill: var(--color1, #458DFC)" d="M17.8 1.723l-12.61 0.014c-0.14 0-0.251-0.112-0.251-0.251v-1.22c0-0.14 0.112-0.251 0.251-0.251l12.607-0.014c0.14 0 0.251 0.112 0.251 0.251v1.22c0.003 0.14-0.109 0.251-0.249 0.251z"></path>
<path fill="#58d6f4" style="fill: var(--color7, #58d6f4)" d="M5.202 1.737l12.587-0.014c0.145 0 0.263-0.117 0.263-0.263v-0.598l-13.115 0.014v0.598c0 0.145 0.12 0.263 0.265 0.263z"></path>
<path fill="#58d6f4" style="fill: var(--color7, #58d6f4)" d="M9.626 27.356l-1.089-6.591-0.883 2.868-2.525 0.003c-0.154 0-0.277-0.123-0.277-0.276s0.123-0.276 0.277-0.276l2.12-0.003 1.455-4.723 1.089 6.608 1.413-4.538 0.751 2.15 1.692-4.103 1.645 6.507 0.62-2.070 1.815-0.003c0.154 0 0.276 0.123 0.276 0.276s-0.123 0.276-0.276 0.276l-1.405 0.003-1.075 3.589-1.726-6.826-1.611 3.902-0.679-1.941-1.609 5.167z"></path>
<path fill="#458DFC" style="fill: var(--color1, #458DFC)" d="M7.755 14.648l-3.55 0.003c-0.572 0-1.042-0.466-1.042-1.039l-0.006-4.963c0-0.573 0.466-1.042 1.039-1.042l3.55-0.003c0.573 0 1.042 0.466 1.042 1.039l0.006 4.963c0 0.573-0.466 1.039-1.039 1.042zM4.194 7.909c-0.408 0-0.737 0.332-0.737 0.74l0.006 4.963c0 0.408 0.332 0.737 0.74 0.737l3.55-0.003c0.408 0 0.737-0.332 0.737-0.74l-0.006-4.963c0-0.408-0.332-0.737-0.74-0.737l-3.55 0.003z"></path>
<path fill="#458DFC" style="fill: var(--color1, #458DFC)" d="M5.976 13.696c1.678-0.003 2.201-0.972 2.201-0.972-0.075-0.095-0.17-0.179-0.299-0.263-0.441-0.288-0.796-0.411-0.944-0.533-0.151-0.12-0.235-0.296-0.235-0.296l-0.092 0.056c0 0-0.056-0.193-0.025-0.486 0 0 0.131-0.034 0.229-0.478 0.156 0.031 0.341-0.366 0.254-0.511-0.056-0.095-0.123-0.087-0.17-0.064 0.047-0.198 0.263-1.296-0.922-1.296s-0.969 1.098-0.919 1.296c-0.048-0.022-0.114-0.031-0.17 0.064-0.087 0.145 0.101 0.542 0.257 0.511 0.098 0.444 0.232 0.475 0.232 0.475 0.034 0.29-0.025 0.486-0.025 0.486l-0.092-0.056c0 0-0.084 0.173-0.235 0.296s-0.503 0.249-0.944 0.536c-0.128 0.084-0.226 0.168-0.299 0.263-0.003 0.006 0.522 0.975 2.198 0.972z"></path>
<path fill="#458DFC" style="fill: var(--color1, #458DFC)" d="M17.029 9.188l-6.834 0.008c-0.128 0-0.232-0.103-0.232-0.232v-0.039c0-0.128 0.103-0.232 0.232-0.232l6.834-0.008c0.128 0 0.232 0.103 0.232 0.232v0.039c0 0.128-0.106 0.232-0.232 0.232z"></path>
<path fill="#458DFC" style="fill: var(--color1, #458DFC)" d="M14.516 10.49l-4.32 0.006c-0.128 0-0.232-0.103-0.232-0.232v-0.039c0-0.128 0.103-0.232 0.232-0.232l4.32-0.006c0.128 0 0.232 0.103 0.232 0.232v0.039c0 0.128-0.103 0.232-0.232 0.232z"></path>
<path fill="#458DFC" style="fill: var(--color1, #458DFC)" opacity="0.6" d="M19.387 12.037l-9.188 0.011c-0.128 0-0.232-0.103-0.232-0.232v-0.039c0-0.128 0.103-0.232 0.232-0.232l9.188-0.011c0.128 0 0.232 0.103 0.232 0.232v0.039c-0.003 0.128-0.106 0.232-0.232 0.232z"></path>
<path fill="#458DFC" style="fill: var(--color1, #458DFC)" opacity="0.6" d="M19.188 16.385l-15.327 0.017c-0.131 0-0.24-0.106-0.24-0.24v-0.022c0-0.131 0.106-0.24 0.24-0.24l15.327-0.017c0.131 0 0.24 0.106 0.24 0.24v0.022c0 0.134-0.109 0.24-0.24 0.24z"></path>
<path fill="#458DFC" style="fill: var(--color1, #458DFC)" opacity="0.6" d="M19.387 13.556l-9.188 0.011c-0.128 0-0.232-0.103-0.232-0.232v-0.039c0-0.128 0.103-0.232 0.232-0.232l9.188-0.011c0.128 0 0.232 0.103 0.232 0.232v0.039c0 0.128-0.103 0.232-0.232 0.232z"></path>
</symbol>
<symbol id="iconFrame-3" viewBox="0 0 33 32">
<path fill="#458DFC" style="fill: var(--color1, #458DFC)" d="M19.988 15.401l-16.858 16.089c-0.358 0.342-0.817 0.514-1.276 0.514-0.502 0-1.005-0.204-1.37-0.608-0.719-0.794-0.625-2.036 0.202-2.713l17.844-14.541 1.457 1.26z"></path>
<path fill="#3a81d6" style="fill: var(--color3, #3a81d6)" opacity="0.8" d="M16.619 18.638l-3.177 3.030-0.293-3.114 1.739-1.417 1.731 1.5z"></path>
<path fill="#458DFC" style="fill: var(--color1, #458DFC)" d="M32.703 10.634c0 5.874-4.728 10.638-10.554 10.638-3.672 0-6.907-1.89-8.797-4.76-1.11-1.683-1.757-3.704-1.757-5.878 0-5.874 4.728-10.634 10.554-10.634 2.631 0 5.035 0.969 6.882 2.571 2.248 1.952 3.672 4.84 3.672 8.063z"></path>
<path fill="#fff" style="fill: var(--color2, #fff)" d="M22.149 18.919c4.541 0 8.223-3.709 8.223-8.285s-3.681-8.285-8.223-8.285-8.223 3.709-8.223 8.285c0 4.576 3.681 8.285 8.223 8.285z"></path>
<path fill="#1a6fb5" style="fill: var(--color4, #1a6fb5)" opacity="0.03" d="M32.703 10.634c0 5.874-4.728 10.638-10.554 10.638-3.672 0-6.907-1.89-8.797-4.76 11.902-0.976 15.040-11.136 15.683-13.941 2.245 1.952 3.669 4.84 3.669 8.063z"></path>
<path fill="#458DFC" style="fill: var(--color1, #458DFC)" d="M22.149 10.652c0.954 0 1.728-0.779 1.728-1.741s-0.773-1.741-1.728-1.741c-0.954 0-1.728 0.779-1.728 1.741s0.77 1.741 1.728 1.741zM22.149 11.523c-1.153 0-3.455 0.583-3.455 1.741v0.437c0 0.24 0.195 0.437 0.434 0.437h6.051c0.239 0 0.434-0.197 0.434-0.437v-0.437c-0.007-1.154-2.31-1.741-3.463-1.741z"></path>
</symbol>
<symbol id="iconFrame-2" viewBox="0 0 36 32">
<path fill="#458DFC" style="fill: var(--color1, #458DFC)" d="M29.545 6.227h-23.652v25.385h23.652v-25.385z"></path>
<path fill="#458DFC" style="fill: var(--color1, #458DFC)" d="M5.795 6.227c0.029 0 0.057 0.012 0.098 0.024 0 8.445 0 16.891 0 25.348-1.831 0.143-3.377-0.318-4.604-1.501-0.869-0.84-1.289-1.827-1.289-2.944 0-3.956 0-7.907 0-11.863 0-1.509-0.004-3.018-0.004-4.527 0-1.823 0.983-3.148 2.789-4.045 0.93-0.457 1.962-0.526 3.010-0.493z"></path>
<path fill="#fff" style="fill: var(--color2, #fff)" d="M25.414 6.223c1.056 0 1.162 0 2.214 0 0 8.474 0 16.919 0 25.381-7.181 0-12.613 0-19.819 0 0-8.458 0-16.903 0-25.373 1.052 0 1.28 0 2.353 0 0-0.106 0-0.188 0-0.265 0-0.909 0.004-1.823-0.004-2.732-0.008-0.636 0.163-1.191 0.661-1.623 0.351-0.302 0.754-0.457 1.211-0.457 1.415-0.004 2.826-0.004 4.241-0.004 2.377 0 4.759 0.004 7.136 0 0.624 0 1.142 0.204 1.55 0.677 0.326 0.379 0.449 0.824 0.449 1.321-0.004 0.958 0 1.917 0 2.875-0.004 0.053 0 0.114 0.008 0.2zM12.715 6.223c0.098 0 0.171 0 0.245 0 1.126 0 2.255 0 3.381 0 2.104 0 4.213 0 6.317 0.004 0.167 0 0.204-0.053 0.204-0.212-0.008-0.714 0-1.427 0-2.141 0-0.057-0.008-0.114-0.016-0.175-3.385 0-6.749 0-10.13 0 0 0.84 0 1.664 0 2.524z"></path>
<path fill="#458DFC" style="fill: var(--color1, #458DFC)" d="M25.82 0h-16.487v6.231h16.487v-6.231z"></path>
<path fill="#458DFC" style="fill: var(--color1, #458DFC)" d="M35.556 10.701c0-1.68-0.917-2.932-2.549-3.841-1.003-0.559-2.141-0.665-3.307-0.64-0.179 0.004-0.155 0.098-0.155 0.196 0 2.936 0 5.868 0 8.804 0 5.159 0 10.313-0.004 15.472 0 0.298 0 0.595 0 0.918 0.734 0.024 1.431 0.029 2.116-0.135 2.316-0.546 3.894-2.271 3.894-4.306 0.008-5.485 0.004-10.978 0.004-16.467z"></path>
<path fill="#458DFC" style="fill: var(--color1, #458DFC)" d="M19.652 20.793c0 0.526 0 1.024 0 1.525 0 0.567 0 1.134 0 1.696 0 0.338-0.171 0.518-0.506 0.518-0.922 0.004-1.843 0.004-2.765 0-0.306 0-0.477-0.192-0.477-0.514 0-1.011 0-2.023 0-3.034 0-0.057 0-0.118 0-0.192-0.077 0-0.135 0-0.196 0-0.995 0-1.994 0-2.989 0-0.396 0-0.559-0.159-0.559-0.555 0-0.877 0-1.753 0-2.63 0-0.4 0.159-0.559 0.555-0.559 0.991 0 1.982 0 2.973 0 0.065 0 0.126 0 0.212 0 0-0.065 0-0.118 0-0.171 0-1.011 0-2.023 0-3.034 0-0.375 0.167-0.538 0.542-0.538 0.877 0 1.753 0 2.63 0 0.412 0 0.571 0.155 0.571 0.575 0.004 1.003 0 2.002 0 3.005 0 0.049 0 0.098 0 0.167 0.065 0 0.122 0 0.175 0 1.011 0 2.023 0 3.034 0.004 0.371 0 0.53 0.163 0.53 0.534 0 0.881 0 1.762 0 2.643 0 0.404-0.155 0.559-0.55 0.559-1.007 0-2.015 0-3.018 0.004-0.041-0.004-0.090-0.004-0.163-0.004z"></path>
</symbol>
<symbol id="iconGroup-4" viewBox="0 0 23 32">
<path fill="#458DFC" style="fill: var(--color1, #458DFC)" d="M23.288 9.969l-0.072 14.984-0.012 2.898c-0.012 2.303-2.201 4.161-4.894 4.149l-13.457-0.060c-2.688-0.018-4.864-1.894-4.852-4.203l0.084-17.882c0.006-1.864 1.449-3.439 3.421-3.962l0.006-0.962v-0.493l16.397 0.078-0.006 1.455c1.966 0.547 3.391 2.129 3.385 3.998z"></path>
<path fill="#458DFC" style="fill: var(--color1, #458DFC)" d="M21.129 0.667v0.132l-0.012 1.563-0.012 1.533v0.186c0 0.289-0.241 0.523-0.529 0.523h-0.126l-3.331-0.024-0.806-0.012-4.215-0.030-0.794-0.012-8.472-0.060c-0.289 0-0.523-0.241-0.523-0.529v-0.138l0.024-3.091v-0.186c0-0.289 0.24-0.523 0.535-0.523h0.126l17.611 0.138c0.295 0.006 0.523 0.24 0.523 0.529z"></path>
<path fill="#458DFC" style="fill: var(--color1, #458DFC)" d="M21.129 0.806l-0.012 1.557-0.012 1.533-0.716-0.006-1.822-0.012h-0.956l-2.694-0.018h-0.956l-2.694-0.018h-0.956l-2.7-0.018h-0.95l-2.7-0.018h-0.95l-0.704-0.006 0.024-3.091 1.672 0.006 3.65 0.024h0.872l2.778 0.018h0.872l2.778 0.018h0.872l2.778 0.018h0.872l1.654 0.012z"></path>
<path fill="#f7f9fc" style="fill: var(--color5, #f7f9fc)" d="M23.27 13.133l-23.203-0.11-0.049 10.288 23.203 0.11 0.049-10.288z"></path>
<path fill="#fbfcf7" style="fill: var(--color6, #fbfcf7)" d="M23.274 13.133l-23.203-0.11-0.009 1.852 23.203 0.11 0.009-1.852z"></path>
<path fill="#458DFC" style="fill: var(--color1, #458DFC)" d="M9.115 17.16l-1.497-0.006 0.006-1.503-2.062-0.006-0.006 1.497-1.497-0.006-0.012 2.056 1.497 0.006-0.006 1.503 2.062 0.006 0.006-1.497 1.497 0.006 0.012-2.056z"></path>
<path fill="#458DFC" style="fill: var(--color1, #458DFC)" d="M19.289 17.659l-7.42-0.036c-0.198 0-0.361-0.162-0.361-0.361v-0.168c0-0.198 0.162-0.361 0.361-0.361l7.42 0.036c0.198 0 0.361 0.162 0.361 0.361v0.168c0 0.198-0.162 0.361-0.361 0.361z"></path>
<path fill="#458DFC" style="fill: var(--color1, #458DFC)" opacity="0.5" d="M19.283 19.865l-7.42-0.036c-0.198 0-0.361-0.162-0.361-0.361v-0.168c0-0.198 0.162-0.361 0.361-0.361l7.42 0.036c0.198 0 0.361 0.162 0.361 0.361v0.168c0 0.198-0.162 0.361-0.361 0.361z"></path>
<path fill="#1a6fb5" style="fill: var(--color4, #1a6fb5)" opacity="0.08" d="M2.309 0.667v0.132l0.012 1.563 0.012 1.527v0.186c0 0.289 0.24 0.523 0.529 0.523h0.126l17.599-0.126c0.289 0 0.523-0.241 0.523-0.529v-0.138c-9.302 0.403-18.279-3.668-18.279-3.668-0.289 0.006-0.523 0.24-0.523 0.529z"></path>
</symbol>
<symbol id="iconFrame" viewBox="0 0 23 32">
<path fill="#458DFC" style="fill: var(--color1, #458DFC)" d="M21.885 0h-21.1c-0.434 0-0.785 0.346-0.785 0.775v30.453c0 0.428 0.351 0.775 0.785 0.775h21.1c0.434 0 0.785-0.346 0.785-0.775v-30.453c-0.003-0.428-0.353-0.775-0.785-0.775z"></path>
<path fill="#fff" style="fill: var(--color2, #fff)" d="M20.5 1.38h-18.332c-0.421 0-0.764 0.339-0.764 0.757v25.178c0 0.418 0.343 0.754 0.764 0.754h18.332c0.424 0 0.764-0.339 0.764-0.754v-25.178c0-0.418-0.34-0.757-0.764-0.757z"></path>
<path fill="#458DFC" style="fill: var(--color1, #458DFC)" d="M15.082 13.351h-7.494c-0.343 0-0.621-0.274-0.621-0.613v-7.402c0-0.339 0.278-0.613 0.621-0.613h7.494c0.343 0 0.621 0.275 0.621 0.613v7.399c0 0.339-0.278 0.616-0.621 0.616z"></path>
<path fill="#fff" style="fill: var(--color2, #fff)" d="M11.335 31.174c0.637 0 1.154-0.51 1.154-1.139s-0.517-1.139-1.154-1.139c-0.637 0-1.154 0.51-1.154 1.139s0.517 1.139 1.154 1.139z"></path>
<path fill="#458DFC" style="fill: var(--color1, #458DFC)" d="M17.865 17.184h-13.063c-0.33 0-0.6-0.267-0.6-0.593s0.27-0.593 0.6-0.593h13.060c0.33 0 0.6 0.267 0.6 0.593s-0.268 0.593-0.598 0.593z"></path>
<path fill="#458DFC" style="fill: var(--color1, #458DFC)" opacity="0.6" d="M15.653 20.468h-11.070c-0.21 0-0.379-0.169-0.379-0.375v-0.041c0-0.208 0.172-0.375 0.379-0.375h11.070c0.21 0 0.379 0.169 0.379 0.375v0.041c0.003 0.205-0.169 0.375-0.379 0.375z"></path>
<path fill="#458DFC" style="fill: var(--color1, #458DFC)" opacity="0.3" d="M13.546 22.554h-8.999c-0.19 0-0.346-0.154-0.346-0.341v-0.113c0-0.187 0.156-0.341 0.346-0.341h8.996c0.19 0 0.346 0.154 0.346 0.341v0.113c0 0.187-0.156 0.341-0.343 0.341z"></path>
<path fill="#458DFC" style="fill: var(--color1, #458DFC)" opacity="0.6" d="M14.679 24.486h-10.111c-0.2 0-0.364-0.162-0.364-0.359v-0.072c0-0.198 0.164-0.359 0.364-0.359h10.111c0.2 0 0.364 0.162 0.364 0.359v0.072c0 0.195-0.164 0.359-0.364 0.359z"></path>
<path fill="#fff" style="fill: var(--color2, #fff)" d="M11.357 8.799c0.75 0 1.359-0.609 1.359-1.359s-0.608-1.359-1.359-1.359c-0.75 0-1.359 0.609-1.359 1.359s0.605 1.359 1.359 1.359zM11.357 9.478c-0.907 0-2.717 0.455-2.717 1.359v0.341c0 0.188 0.153 0.341 0.341 0.341h4.758c0.188 0 0.341-0.154 0.341-0.341v-0.341c-0.006-0.901-1.816-1.359-2.723-1.359z"></path>
</symbol>
<symbol id="iconpinterest" viewBox="0 0 32 32">
<path fill="#bd081c" style="fill: var(--color8, #bd081c)" d="M16.023 0c-8.828 0-15.984 7.156-15.984 15.983 0 6.772 4.211 12.556 10.157 14.883-0.14-1.265-0.265-3.204 0.055-4.585 0.292-1.249 1.875-7.943 1.875-7.943s-0.479-0.96-0.479-2.375c0-2.217 1.289-3.881 2.891-3.881 1.365 0 2.024 1.025 2.024 2.251 0 1.372-0.871 3.423-1.323 5.323-0.38 1.591 0.8 2.887 2.367 2.887 2.837 0 5.024-2.993 5.024-7.316 0-3.815-2.751-6.492-6.677-6.492-4.547 0-7.212 3.416-7.212 6.932 0 1.377 0.525 2.857 1.185 3.655 0.132 0.16 0.149 0.3 0.113 0.46-0.12 0.5-0.391 1.599-0.445 1.817-0.071 0.3-0.229 0.361-0.535 0.22-1.993-0.92-3.244-3.837-3.244-6.195 0-5.035 3.664-9.669 10.56-9.669 5.544 0 9.856 3.956 9.856 9.231 0 5.513-3.476 9.949-8.311 9.949-1.619 0-3.139-0.839-3.677-1.839l-0.999 3.797c-0.359 1.393-1.339 3.136-1.997 4.195 1.497 0.46 3.075 0.713 4.733 0.713 8.809 0 15.98-7.153 15.98-15.983 0-8.831-7.171-15.983-15.98-15.983z"></path>
</symbol>
<symbol id="iconclock" viewBox="0 0 32 32">
<path d="M16 0c-8.837 0-16 7.163-16 16s7.163 16 16 16 16-7.163 16-16c-0.009-8.833-7.167-15.991-16-16zM16 29.714c-7.574 0-13.714-6.14-13.714-13.714s6.14-13.714 13.714-13.714 13.714 6.14 13.714 13.714c-0.008 7.571-6.143 13.706-13.714 13.714z"></path>
<path d="M16 5.714c-0.631 0-1.143 0.512-1.143 1.143v8h-8c-0.631 0-1.143 0.512-1.143 1.143s0.512 1.143 1.143 1.143h9.143c0.631 0 1.143-0.512 1.143-1.143v-9.143c0-0.631-0.512-1.143-1.143-1.143z"></path>
</symbol>
<symbol id="iconfacebook" viewBox="0 0 32 32">
<path fill="#afb1b8" style="fill: var(--color9, #afb1b8)" d="M21.328 5.312h2.923v-5.088c-1.232-0.143-2.66-0.224-4.107-0.224-0.052 0-0.104 0-0.157 0l0.008-0c-4.213 0-7.099 2.65-7.099 7.52v4.48h-4.646v5.688h4.646v14.312h5.698v-14.31h4.461l0.707-5.688h-5.168v-3.922c0-1.643 0.443-2.768 2.734-2.768z"></path>
</symbol>
<symbol id="iconinstagram" viewBox="0 0 32 32">
<path fill="#afb1b8" style="fill: var(--color9, #afb1b8)" d="M31.968 9.408c-0.074-1.701-0.349-2.869-0.742-3.882-0.424-1.111-1.054-2.059-1.85-2.837l-0.001-0.001c-0.78-0.792-1.724-1.419-2.778-1.827l-0.054-0.018c-1.019-0.394-2.181-0.667-3.882-0.742-1.712-0.082-2.256-0.101-6.602-0.101-4.344 0-4.888 0.019-6.595 0.094-1.699 0.074-2.869 0.349-3.88 0.742-1.112 0.424-2.060 1.054-2.839 1.85l-0.001 0.001c-0.791 0.78-1.418 1.724-1.825 2.778l-0.018 0.054c-0.395 1.019-0.669 2.181-0.744 3.882-0.082 1.712-0.101 2.256-0.101 6.602 0 4.344 0.019 4.888 0.094 6.595 0.075 1.701 0.35 2.869 0.744 3.882 0.426 1.11 1.055 2.057 1.849 2.837l0.001 0.001c0.78 0.792 1.724 1.418 2.778 1.825l0.054 0.018c1.019 0.395 2.182 0.67 3.882 0.744 1.707 0.075 2.251 0.094 6.595 0.094 4.346 0 4.89-0.019 6.595-0.094 1.701-0.074 2.869-0.349 3.882-0.742 2.157-0.85 3.833-2.526 4.664-4.628l0.019-0.055c0.394-1.019 0.669-2.182 0.744-3.882 0.075-1.707 0.093-2.251 0.093-6.595s-0.006-4.888-0.080-6.595zM29.088 22.474c-0.070 1.563-0.333 2.406-0.55 2.97-0.552 1.399-1.64 2.486-3.004 3.024l-0.036 0.012c-0.56 0.219-1.411 0.482-2.968 0.55-1.688 0.075-2.194 0.094-6.464 0.094-4.269 0-4.782-0.019-6.464-0.094-1.563-0.069-2.406-0.331-2.97-0.55-0.721-0.269-1.334-0.676-1.836-1.192l-0.001-0.001c-0.517-0.503-0.924-1.117-1.184-1.803l-0.011-0.034c-0.218-0.563-0.48-1.413-0.549-2.97-0.075-1.688-0.094-2.195-0.094-6.464 0-4.27 0.019-4.784 0.094-6.464 0.069-1.563 0.331-2.406 0.549-2.97 0.269-0.722 0.678-1.337 1.198-1.837l0.002-0.002c0.504-0.517 1.119-0.923 1.806-1.182l0.034-0.011c0.56-0.219 1.411-0.48 2.968-0.55 1.688-0.074 2.195-0.093 6.464-0.093 4.275 0 4.782 0.019 6.464 0.093 1.563 0.069 2.406 0.331 2.97 0.55 0.693 0.256 1.325 0.662 1.837 1.194 0.531 0.52 0.938 1.144 1.195 1.84 0.218 0.56 0.48 1.411 0.549 2.968 0.075 1.688 0.094 2.194 0.094 6.464 0 4.269-0.019 4.768-0.094 6.458z"></path>
<path fill="#afb1b8" style="fill: var(--color9, #afb1b8)" d="M16.059 7.782c-4.539 0.002-8.218 3.682-8.219 8.221v0c0.091 4.471 3.737 8.060 8.221 8.060s8.13-3.589 8.221-8.052l0-0.009c-0.001-4.54-3.681-8.22-8.221-8.221h-0zM16.059 21.334c-2.945-0-5.332-2.388-5.332-5.333s2.388-5.333 5.333-5.333c0 0 0.001 0 0.001 0h-0c2.946 0 5.334 2.388 5.334 5.334s-2.388 5.334-5.334 5.334v0zM26.525 7.458c0 1.060-0.86 1.92-1.92 1.92s-1.92-0.86-1.92-1.92v0c0-1.060 0.86-1.92 1.92-1.92s1.92 0.86 1.92 1.92v0z"></path>
</symbol>
<symbol id="iconsend" viewBox="0 0 32 32">
<path fill="#fff" style="fill: var(--color2, #fff)" d="M32 0l-32 18 10.227 3.787 15.773-14.787-11.997 16.187 0.009 0.003-0.012-0.003v8.813l5.735-6.691 7.267 2.691 4.999-28z"></path>
</symbol>
<symbol id="icontwitter" viewBox="0 0 32 32">
<path fill="#afb1b8" style="fill: var(--color9, #afb1b8)" d="M32 6.078c-1.1 0.493-2.376 0.857-3.713 1.028l-0.068 0.007c1.36-0.817 2.382-2.078 2.873-3.579l0.013-0.046c-1.197 0.722-2.591 1.273-4.076 1.573l-0.084 0.014c-1.2-1.279-2.9-2.076-4.787-2.076-3.622 0-6.558 2.936-6.558 6.558 0 0.001 0 0.003 0 0.004v-0c0 0.52 0.043 1.021 0.152 1.496-5.454-0.266-10.28-2.88-13.522-6.861-0.564 0.949-0.899 2.092-0.902 3.313v0.001c0 2.272 1.171 4.286 2.914 5.451-1.091-0.030-2.107-0.325-2.994-0.823l0.033 0.017v0.072c0.003 3.165 2.236 5.807 5.213 6.44l0.043 0.008c-0.499 0.136-1.071 0.215-1.662 0.215-0.020 0-0.041-0-0.061-0l0.003 0c-0.419 0-0.843-0.024-1.242-0.112 0.85 2.598 3.261 4.509 6.13 4.57-2.215 1.746-5.045 2.8-8.122 2.8-0.004 0-0.008 0-0.013 0h0.001c-0.018 0-0.040 0-0.062 0-0.531 0-1.055-0.034-1.569-0.099l0.061 0.006c2.826 1.846 6.287 2.944 10.004 2.944 0.021 0 0.042-0 0.063-0h-0.003c12.072 0 18.672-10 18.672-18.669 0-0.288-0.010-0.57-0.024-0.848 1.299-0.936 2.39-2.064 3.258-3.355l0.030-0.047z"></path>
</symbol>
<symbol id="icondocument-list" viewBox="0 0 32 32">
<path d="M19.5 3h0.5l6 7v18.009c0 1.093-0.894 1.991-1.997 1.991h-15.005c-1.107 0-1.997-0.899-1.997-2.007v-22.985c0-1.109 0.897-2.007 2.003-2.007h10.497zM19 4h-10.004c-0.55 0-0.996 0.455-0.996 0.995v23.009c0 0.55 0.455 0.995 1 0.995h15c0.552 0 1-0.445 1-0.993v-17.007h-4.002c-1.103 0-1.998-0.887-1.998-2.006v-4.994zM20 4.5v4.491c0 0.557 0.451 1.009 0.997 1.009h3.703l-4.7-5.5zM15 14v1h8v-1h-8zM10 13h3v3h-3v-3zM11 14v1h1v-1h-1zM10 18h3v3h-3v-3zM11 19v1h1v-1h-1zM15 19v1h8v-1h-8zM10 23h3v3h-3v-3zM11 24v1h1v-1h-1zM15 24v1h8v-1h-8z"></path>
</symbol>
<symbol id="iconhome" viewBox="0 0 32 32">
<path d="M32 18.451l-16-12.42-16 12.42v-5.064l16-12.42 16 12.42zM28 18v12h-8v-8h-8v8h-8v-12l12-9z"></path>
</symbol>
<symbol id="iconfile-play" viewBox="0 0 32 32">
<path d="M12 12l10 7-10 7v-14z"></path>
<path d="M28.681 7.159c-0.694-0.947-1.662-2.053-2.724-3.116s-2.169-2.030-3.116-2.724c-1.612-1.182-2.393-1.319-2.841-1.319h-15.5c-1.378 0-2.5 1.121-2.5 2.5v27c0 1.378 1.122 2.5 2.5 2.5h23c1.378 0 2.5-1.122 2.5-2.5v-19.5c0-0.448-0.137-1.23-1.319-2.841zM24.543 5.457c0.959 0.959 1.712 1.825 2.268 2.543h-4.811v-4.811c0.718 0.556 1.584 1.309 2.543 2.268zM28 29.5c0 0.271-0.229 0.5-0.5 0.5h-23c-0.271 0-0.5-0.229-0.5-0.5v-27c0-0.271 0.229-0.5 0.5-0.5 0 0 15.499-0 15.5 0v7c0 0.552 0.448 1 1 1h7v19.5z"></path>
</symbol>
<symbol id="icondisplay" viewBox="0 0 32 32">
<path d="M0 2v20h32v-20h-32zM30 20h-28v-16h28v16zM21 24h-10l-1 4-2 2h16l-2-2z"></path>
</symbol>
<symbol id="iconstats-dots" viewBox="0 0 32 32">
<path d="M4 28h28v4h-32v-32h4zM9 26c-1.657 0-3-1.343-3-3s1.343-3 3-3c0.088 0 0.176 0.005 0.262 0.012l3.225-5.375c-0.307-0.471-0.487-1.033-0.487-1.638 0-1.657 1.343-3 3-3s3 1.343 3 3c0 0.604-0.179 1.167-0.487 1.638l3.225 5.375c0.086-0.007 0.174-0.012 0.262-0.012 0.067 0 0.133 0.003 0.198 0.007l5.324-9.316c-0.329-0.482-0.522-1.064-0.522-1.691 0-1.657 1.343-3 3-3s3 1.343 3 3c0 1.657-1.343 3-3 3-0.067 0-0.133-0.003-0.198-0.007l-5.324 9.316c0.329 0.481 0.522 1.064 0.522 1.691 0 1.657-1.343 3-3 3s-3-1.343-3-3c0-0.604 0.179-1.167 0.487-1.638l-3.225-5.375c-0.086 0.007-0.174 0.012-0.262 0.012s-0.176-0.005-0.262-0.012l-3.225 5.375c0.307 0.471 0.487 1.033 0.487 1.637 0 1.657-1.343 3-3 3z"></path>
</symbol>
</defs>
</svg>
