<svg aria-hidden="true" style="position: absolute; width: 0; height: 0; overflow: hidden;" version="1.1" xmlns="http://www.w3.org/2000/svg" xmlns:xlink="http://www.w3.org/1999/xlink">
<defs>
<symbol id="iconarrow-left" viewBox="0 0 49 32">
<path fill="#458ff6" style="fill: var(--color1, #458ff6)" d="M44.953 13.075h-35.446l7.788-7.788c1.075-1.075 1.075-2.685 0-3.759s-2.685-1.075-3.759 0l-12.352 12.35c-1.075 1.075-1.075 2.685 0 3.759l12.352 12.352c1.075 1.075 2.685 1.075 3.759 0 1.075-1.073 1.075-2.685 0-3.759l-7.788-7.788h35.446c1.342 0 2.686-1.073 2.686-2.685s-1.344-2.685-2.686-2.685z"></path>
</symbol>
<symbol id="iconarrow-bottom" viewBox="0 0 22 32">
<path d="M9.64 2.112v23.148l-5.088-5.086c-0.309-0.324-0.745-0.525-1.227-0.525s-0.918 0.201-1.226 0.524l-0.001 0.001c-0.324 0.309-0.525 0.745-0.525 1.227s0.201 0.918 0.524 1.226l0.001 0.001 8.068 8.068c0.7 0.702 1.752 0.702 2.454 0l8.068-8.068c0.324-0.309 0.525-0.745 0.525-1.227s-0.201-0.918-0.524-1.226l-0.001-0.001c-0.309-0.324-0.745-0.526-1.228-0.526s-0.919 0.202-1.227 0.526l-0.001 0.001-5.086 5.086v-23.148c-0.002-0.968-0.786-1.752-1.754-1.754h-0c-0.967 0.003-1.75 0.787-1.752 1.754v0z"></path>
</symbol>
<symbol id="iconarrow-right" viewBox="0 0 49 32">
<path fill="#458ff6" style="fill: var(--color1, #458ff6)" d="M2.925 18.925h35.446l-7.786 7.788c-1.075 1.075-1.075 2.686 0 3.759 1.073 1.075 2.685 1.075 3.759 0l12.352-12.352c1.075-1.075 1.075-2.685 0-3.759l-12.352-12.352c-1.075-1.075-2.686-1.075-3.759 0-1.075 1.073-1.075 2.685 0 3.759l7.786 7.788h-35.446c-1.342 0-2.685 1.073-2.685 2.685s1.342 2.685 2.685 2.685z"></path>
</symbol>
<symbol id="iconbackg-dots" viewBox="0 0 37 32">
<path d="M1.455 2.901c0.804 0 1.455-0.649 1.455-1.451s-0.651-1.45-1.455-1.45c-0.803 0-1.455 0.649-1.455 1.45s0.651 1.451 1.455 1.451z"></path>
<path d="M9.881 2.901c0.803 0 1.455-0.649 1.455-1.451s-0.651-1.45-1.455-1.45c-0.804 0-1.455 0.649-1.455 1.45s0.651 1.451 1.455 1.451z"></path>
<path d="M18.307 2.901c0.804 0 1.455-0.649 1.455-1.451s-0.651-1.45-1.455-1.45c-0.803 0-1.455 0.649-1.455 1.45s0.651 1.451 1.455 1.451z"></path>
<path d="M26.733 2.901c0.803 0 1.455-0.649 1.455-1.451s-0.651-1.45-1.455-1.45-1.455 0.649-1.455 1.45c0 0.801 0.651 1.451 1.455 1.451z"></path>
<path d="M35.159 2.901c0.803 0 1.455-0.649 1.455-1.451s-0.651-1.45-1.455-1.45c-0.804 0-1.455 0.649-1.455 1.45s0.651 1.451 1.455 1.451z"></path>
<path d="M1.455 10.183c0.804 0 1.455-0.649 1.455-1.451s-0.651-1.45-1.455-1.45c-0.803-0-1.455 0.649-1.455 1.45s0.651 1.451 1.455 1.451z"></path>
<path d="M9.881 10.183c0.803 0 1.455-0.649 1.455-1.451s-0.651-1.45-1.455-1.45c-0.804 0-1.455 0.649-1.455 1.45s0.651 1.451 1.455 1.451z"></path>
<path d="M18.307 10.183c0.804 0 1.455-0.649 1.455-1.451s-0.651-1.45-1.455-1.45c-0.803 0-1.455 0.649-1.455 1.45s0.651 1.451 1.455 1.451z"></path>
<path d="M26.733 10.183c0.803 0 1.455-0.649 1.455-1.451s-0.651-1.45-1.455-1.45-1.455 0.649-1.455 1.45c0 0.801 0.651 1.451 1.455 1.451z"></path>
<path d="M35.159 10.183c0.803 0 1.455-0.649 1.455-1.451s-0.651-1.45-1.455-1.45c-0.804 0-1.455 0.649-1.455 1.45s0.651 1.451 1.455 1.451z"></path>
<path d="M1.455 17.45c0.804 0 1.455-0.649 1.455-1.45s-0.651-1.45-1.455-1.45c-0.803 0-1.455 0.649-1.455 1.45s0.651 1.45 1.455 1.45z"></path>
<path d="M9.881 17.45c0.803 0 1.455-0.649 1.455-1.45s-0.651-1.45-1.455-1.45c-0.804 0-1.455 0.649-1.455 1.45s0.651 1.45 1.455 1.45z"></path>
<path d="M18.307 17.45c0.804 0 1.455-0.649 1.455-1.45s-0.651-1.45-1.455-1.45c-0.803 0-1.455 0.649-1.455 1.45s0.651 1.45 1.455 1.45z"></path>
<path d="M26.733 17.45c0.803 0 1.455-0.649 1.455-1.45s-0.651-1.45-1.455-1.45-1.455 0.649-1.455 1.45c0 0.801 0.651 1.45 1.455 1.45z"></path>
<path d="M35.159 17.45c0.803 0 1.455-0.649 1.455-1.45s-0.651-1.45-1.455-1.45c-0.804 0-1.455 0.649-1.455 1.45s0.651 1.45 1.455 1.45z"></path>
<path d="M1.455 24.733c0.804 0 1.455-0.649 1.455-1.45s-0.651-1.451-1.455-1.451c-0.803 0-1.455 0.649-1.455 1.451s0.651 1.45 1.455 1.45z"></path>
<path d="M9.881 24.733c0.803 0 1.455-0.649 1.455-1.45s-0.651-1.451-1.455-1.451c-0.804 0-1.455 0.649-1.455 1.451s0.651 1.45 1.455 1.45z"></path>
<path d="M18.307 24.733c0.804 0 1.455-0.649 1.455-1.45s-0.651-1.451-1.455-1.451c-0.803 0-1.455 0.649-1.455 1.451s0.651 1.45 1.455 1.45z"></path>
<path d="M26.733 24.733c0.803 0 1.455-0.649 1.455-1.45s-0.651-1.451-1.455-1.451-1.455 0.649-1.455 1.451 0.651 1.45 1.455 1.45z"></path>
<path d="M35.159 24.733c0.803 0 1.455-0.649 1.455-1.45s-0.651-1.451-1.455-1.451c-0.804 0-1.455 0.649-1.455 1.451s0.651 1.45 1.455 1.45z"></path>
<path d="M1.455 32c0.804 0 1.455-0.649 1.455-1.45s-0.651-1.451-1.455-1.451c-0.803 0-1.455 0.649-1.455 1.451s0.651 1.45 1.455 1.45z"></path>
<path d="M9.881 32c0.803 0 1.455-0.649 1.455-1.45s-0.651-1.451-1.455-1.451c-0.804 0-1.455 0.649-1.455 1.451s0.651 1.45 1.455 1.45z"></path>
<path d="M18.307 32c0.804 0 1.455-0.649 1.455-1.45s-0.651-1.451-1.455-1.451c-0.803 0-1.455 0.649-1.455 1.451s0.651 1.45 1.455 1.45z"></path>
<path d="M26.733 32c0.803 0 1.455-0.649 1.455-1.45s-0.651-1.451-1.455-1.451-1.455 0.649-1.455 1.451c0 0.801 0.651 1.45 1.455 1.45z"></path>
<path d="M35.159 32c0.803 0 1.455-0.649 1.455-1.45s-0.651-1.451-1.455-1.451c-0.804 0-1.455 0.649-1.455 1.451s0.651 1.45 1.455 1.45z"></path>
</symbol>
<symbol id="iconbackg-drop-left" viewBox="0 0 28 32">
<path d="M-5.122 11.777c2.029-2.33 6.036 0.684 11.841-0.635 5.028-1.143 5.318-4.18 9.335-4.029 2.935 0.109 6.134 1.804 7.891 4.757 1.939 3.255 1.234 6.57 1.036 7.374-0.883 3.607-3.504 5.51-4.429 6.16-3.81 2.676-8.084 2.207-10.135 1.983-7.704-0.844-15.951-6.344-16.318-12.323-0.049-0.783-0.138-2.235 0.778-3.287z"></path>
</symbol>
<symbol id="iconbackg-drop-right" viewBox="0 0 22 32">
<path d="M33.778 19.934c-2.005 2.411-6.139-0.555-11.998 0.917-5.075 1.275-5.299 4.363-9.378 4.302-2.98-0.044-6.264-1.689-8.115-4.644-2.041-3.258-1.403-6.637-1.221-7.457 0.813-3.68 3.428-5.671 4.351-6.351 3.803-2.802 8.151-2.425 10.236-2.245 7.835 0.679 16.328 6.069 16.838 12.126 0.068 0.793 0.191 2.264-0.714 3.353z"></path>
</symbol>
<symbol id="iconslider" viewBox="0 0 301 32">
<path fill="#5b9bf3" style="fill: var(--color2, #5b9bf3)" opacity="0.3" d="M121.6 16c0 8.837-7.163 16-16 16s-16-7.163-16-16c0-8.837 7.163-16 16-16s16 7.163 16 16z"></path>
<path fill="#5b9bf3" style="fill: var(--color2, #5b9bf3)" opacity="0.3" d="M211.2 16c0 8.837-7.163 16-16 16s-16-7.163-16-16c0-8.837 7.163-16 16-16s16 7.163 16 16z"></path>
<path fill="#5b9bf3" style="fill: var(--color2, #5b9bf3)" opacity="0.3" d="M300.8 16c0 8.837-7.163 16-16 16s-16-7.163-16-16c0-8.837 7.163-16 16-16s16 7.163 16 16z"></path>
<path fill="#5b9bf3" style="fill: var(--color2, #5b9bf3)" d="M32 16c0 8.837-7.163 16-16 16s-16-7.163-16-16c0-8.837 7.163-16 16-16s16 7.163 16 16z"></path>
</symbol>
<symbol id="iconfile-play" viewBox="0 0 32 32">
<path d="M12 12l10 7-10 7v-14z"></path>
<path d="M28.681 7.159c-0.694-0.947-1.662-2.053-2.724-3.116s-2.169-2.030-3.116-2.724c-1.612-1.182-2.393-1.319-2.841-1.319h-15.5c-1.378 0-2.5 1.121-2.5 2.5v27c0 1.378 1.122 2.5 2.5 2.5h23c1.378 0 2.5-1.122 2.5-2.5v-19.5c0-0.448-0.137-1.23-1.319-2.841zM24.543 5.457c0.959 0.959 1.712 1.825 2.268 2.543h-4.811v-4.811c0.718 0.556 1.584 1.309 2.543 2.268zM28 29.5c0 0.271-0.229 0.5-0.5 0.5h-23c-0.271 0-0.5-0.229-0.5-0.5v-27c0-0.271 0.229-0.5 0.5-0.5 0 0 15.499-0 15.5 0v7c0 0.552 0.448 1 1 1h7v19.5z"></path>
</symbol>
<symbol id="icondisplay" viewBox="0 0 32 32">
<path d="M0 2v20h32v-20h-32zM30 20h-28v-16h28v16zM21 24h-10l-1 4-2 2h16l-2-2z"></path>
</symbol>
<symbol id="iconstats-dots" viewBox="0 0 32 32">
<path d="M4 28h28v4h-32v-32h4zM9 26c-1.657 0-3-1.343-3-3s1.343-3 3-3c0.088 0 0.176 0.005 0.262 0.012l3.225-5.375c-0.307-0.471-0.487-1.033-0.487-1.638 0-1.657 1.343-3 3-3s3 1.343 3 3c0 0.604-0.179 1.167-0.487 1.638l3.225 5.375c0.086-0.007 0.174-0.012 0.262-0.012 0.067 0 0.133 0.003 0.198 0.007l5.324-9.316c-0.329-0.482-0.522-1.064-0.522-1.691 0-1.657 1.343-3 3-3s3 1.343 3 3c0 1.657-1.343 3-3 3-0.067 0-0.133-0.003-0.198-0.007l-5.324 9.316c0.329 0.481 0.522 1.064 0.522 1.691 0 1.657-1.343 3-3 3s-3-1.343-3-3c0-0.604 0.179-1.167 0.487-1.638l-3.225-5.375c-0.086 0.007-0.174 0.012-0.262 0.012s-0.176-0.005-0.262-0.012l-3.225 5.375c0.307 0.471 0.487 1.033 0.487 1.637 0 1.657-1.343 3-3 3z"></path>
</symbol>
</defs>
</svg>
